<mxfile host="app.diagrams.net" agent="Mozilla/5.0 (Windows NT 10.0; Win64; x64) AppleWebKit/537.36 (KHTML, like Gecko) Chrome/134.0.0.0 Safari/537.36" version="26.0.11">
  <diagram name="Page-1" id="FyGN7TBdmL1Yu1K9n9dw">
    <mxGraphModel dx="1434" dy="752" grid="1" gridSize="10" guides="1" tooltips="1" connect="1" arrows="1" fold="1" page="1" pageScale="1" pageWidth="827" pageHeight="1169" math="0" shadow="0">
      <root>
        <mxCell id="0" />
        <mxCell id="1" parent="0" />
        <mxCell id="D5FTzPaBKbEAZltCO_hc-9" value="Y aura pas de compte différent juste des roles en&amp;nbsp;&lt;div&gt;fonction de ton role tu peux faire plusieurs chose.&amp;nbsp;&lt;/div&gt;&lt;div&gt;Exemple si tu es artisan, tu peux commander comme un client&lt;div&gt;&lt;br&gt;&lt;/div&gt;&lt;/div&gt;" style="text;html=1;align=center;verticalAlign=middle;resizable=0;points=[];autosize=1;strokeColor=none;fillColor=none;" vertex="1" parent="1">
          <mxGeometry x="170" y="370" width="350" height="70" as="geometry" />
        </mxCell>
        <mxCell id="D5FTzPaBKbEAZltCO_hc-11" value="Structure du projet :&amp;nbsp;&lt;span style=&quot;color: rgb(36, 36, 36); font-family: source-code-pro, Menlo, Monaco, &amp;quot;Courier New&amp;quot;, Courier, monospace; font-size: 14px; letter-spacing: -0.308px; text-align: start; white-space: pre; background-color: rgb(249, 249, 249);&quot;&gt;MySolution&lt;/span&gt;&lt;br style=&quot;box-sizing: inherit; color: rgb(36, 36, 36); font-family: source-code-pro, Menlo, Monaco, &amp;quot;Courier New&amp;quot;, Courier, monospace; font-size: 14px; letter-spacing: -0.308px; text-align: start; white-space: pre; background-color: rgb(249, 249, 249);&quot;&gt;&lt;span style=&quot;color: rgb(36, 36, 36); font-family: source-code-pro, Menlo, Monaco, &amp;quot;Courier New&amp;quot;, Courier, monospace; font-size: 14px; letter-spacing: -0.308px; text-align: start; white-space: pre; background-color: rgb(249, 249, 249);&quot;&gt;├── MySolution.API                # Presentation Layer (Web API project)&lt;/span&gt;&lt;br style=&quot;box-sizing: inherit; color: rgb(36, 36, 36); font-family: source-code-pro, Menlo, Monaco, &amp;quot;Courier New&amp;quot;, Courier, monospace; font-size: 14px; letter-spacing: -0.308px; text-align: start; white-space: pre; background-color: rgb(249, 249, 249);&quot;&gt;&lt;span style=&quot;color: rgb(36, 36, 36); font-family: source-code-pro, Menlo, Monaco, &amp;quot;Courier New&amp;quot;, Courier, monospace; font-size: 14px; letter-spacing: -0.308px; text-align: start; white-space: pre; background-color: rgb(249, 249, 249);&quot;&gt;├── MySolution.BLL                # Business Logic Layer (Class Library)&lt;/span&gt;&lt;br style=&quot;box-sizing: inherit; color: rgb(36, 36, 36); font-family: source-code-pro, Menlo, Monaco, &amp;quot;Courier New&amp;quot;, Courier, monospace; font-size: 14px; letter-spacing: -0.308px; text-align: start; white-space: pre; background-color: rgb(249, 249, 249);&quot;&gt;&lt;span style=&quot;color: rgb(36, 36, 36); font-family: source-code-pro, Menlo, Monaco, &amp;quot;Courier New&amp;quot;, Courier, monospace; font-size: 14px; letter-spacing: -0.308px; text-align: start; white-space: pre; background-color: rgb(249, 249, 249);&quot;&gt;├── MySolution.DAL                # Data Access Layer (Class Library)&lt;/span&gt;&lt;br style=&quot;box-sizing: inherit; color: rgb(36, 36, 36); font-family: source-code-pro, Menlo, Monaco, &amp;quot;Courier New&amp;quot;, Courier, monospace; font-size: 14px; letter-spacing: -0.308px; text-align: start; white-space: pre; background-color: rgb(249, 249, 249);&quot;&gt;&lt;span style=&quot;color: rgb(36, 36, 36); font-family: source-code-pro, Menlo, Monaco, &amp;quot;Courier New&amp;quot;, Courier, monospace; font-size: 14px; letter-spacing: -0.308px; text-align: start; white-space: pre; background-color: rgb(249, 249, 249);&quot;&gt;├── MySolution.Models             # Shared Models/DTOs (Class Library)&lt;/span&gt;" style="text;html=1;align=center;verticalAlign=middle;whiteSpace=wrap;rounded=0;" vertex="1" parent="1">
          <mxGeometry x="340" y="490" width="60" height="30" as="geometry" />
        </mxCell>
        <mxCell id="D5FTzPaBKbEAZltCO_hc-12" value="4 Controller Artisan, Customer, Delivery Man et admin" style="text;html=1;align=center;verticalAlign=middle;whiteSpace=wrap;rounded=0;" vertex="1" parent="1">
          <mxGeometry x="50" y="110" width="130" height="60" as="geometry" />
        </mxCell>
      </root>
    </mxGraphModel>
  </diagram>
</mxfile>
